<?xml version="1.0" standalone="no"?>
<!DOCTYPE svg PUBLIC "-//W3C//DTD SVG 20010904//EN"
 "http://www.w3.org/TR/2001/REC-SVG-20010904/DTD/svg10.dtd">
<svg version="1.0" xmlns="http://www.w3.org/2000/svg"
 width="500.000000pt" height="500.000000pt" viewBox="0 0 500.000000 500.000000"
 preserveAspectRatio="xMidYMid meet">

<g transform="translate(0.000000,500.000000) scale(0.100000,-0.100000)"
fill="#000000" stroke="none">
<path d="M2477 3026 c-26 -7 -57 -21 -68 -32 -60 -53 -79 -195 -38 -277 29
-57 168 -199 190 -192 29 10 39 -17 32 -94 -4 -50 -12 -78 -23 -90 -44 -42
-62 -111 -37 -145 11 -16 22 -18 60 -12 88 13 139 68 156 167 l9 54 1 -77 c1
-78 6 -89 30 -65 10 10 11 4 5 -30 l-7 -43 72 0 71 0 -2 418 -3 417 -80 0 -80
0 -5 -285 c-3 -157 -7 -271 -8 -255 -5 61 -42 118 -143 218 -94 93 -100 101
-97 136 2 29 7 37 27 39 29 4 41 -12 41 -55 l0 -33 85 0 85 0 0 33 c0 87 -48
172 -110 195 -47 18 -115 21 -163 8z m319 -722 c-11 -7 -22 -11 -25 -8 -3 3 3
12 13 20 11 7 22 11 25 8 3 -3 -3 -12 -13 -20z"/>
<path d="M1490 2611 l0 -421 138 0 c123 0 142 2 182 23 87 44 102 117 93 455
-6 211 -8 238 -27 275 -35 70 -68 81 -238 85 l-148 4 0 -421z m240 243 c14
-35 13 -470 0 -495 -7 -12 -21 -19 -40 -19 l-30 0 0 270 0 270 30 0 c24 0 33
-6 40 -26z"/>
<path d="M1990 3023 c0 -5 -14 -145 -30 -313 -33 -343 -33 -341 -21 -322 10
16 42 13 48 -4 2 -6 -12 -34 -32 -62 -50 -74 -48 -89 18 -97 92 -12 101 -7
107 50 l5 50 47 3 c39 3 47 0 52 -16 5 -15 15 -20 39 -18 28 1 32 -2 32 -24 0
-19 -8 -29 -33 -39 -50 -23 -33 -36 51 -39 l77 -3 -1 38 c0 21 -17 209 -37
418 l-37 380 -142 3 c-79 1 -143 -1 -143 -5z m179 -540 c1 -20 -4 -23 -34 -23
-34 0 -35 1 -35 38 0 64 22 356 28 372 4 12 39 -308 41 -387z"/>
<path d="M2950 2609 l0 -420 31 18 c17 10 39 28 49 41 22 28 30 28 30 0 0 -20
1 -20 18 -5 10 10 28 17 40 17 24 0 47 -34 38 -56 -4 -11 6 -14 48 -14 83 0
86 3 86 76 l0 64 -85 0 -85 0 0 350 0 350 -85 0 -85 0 0 -421z"/>
<path d="M3276 2988 c3 -24 24 -197 48 -385 23 -189 45 -345 48 -348 3 -3 23
6 44 20 45 30 78 30 82 -2 4 -25 -40 -53 -83 -53 -17 0 -25 -5 -22 -12 2 -9
33 -13 107 -13 l104 0 51 415 51 415 -75 3 c-43 2 -77 -1 -81 -7 -3 -6 -17
-127 -30 -271 -13 -143 -26 -258 -28 -255 -3 3 -26 202 -62 533 0 1 -36 2 -80
2 l-80 0 6 -42z"/>
<path d="M3769 3013 c0 -10 -17 -189 -38 -398 -21 -209 -36 -382 -34 -384 1
-2 9 2 18 9 9 7 19 10 22 6 4 -4 -6 -18 -22 -31 l-30 -24 82 -1 82 0 5 33 c3
17 7 48 8 67 3 34 4 35 50 38 53 3 55 0 60 -88 l3 -45 78 -3 77 -3 -1 38 c0
21 -17 209 -37 418 l-37 380 -142 3 c-131 2 -143 1 -144 -15z m180 -530 c1
-20 -4 -23 -34 -23 -34 0 -35 1 -35 38 0 64 22 356 28 372 4 12 39 -308 41
-387z"/>
<path d="M507 2827 c-4 -27 -2 -46 6 -54 7 -6 80 -50 162 -98 83 -48 151 -88
152 -89 1 -1 -72 -44 -163 -96 l-165 -95 5 -49 c3 -27 7 -51 10 -53 8 -9 507
259 513 274 4 9 2 22 -3 30 -5 8 -122 72 -260 143 l-251 130 -6 -43z"/>
<path d="M2560 2501 c0 -6 5 -13 10 -16 6 -3 10 1 10 9 0 9 -4 16 -10 16 -5 0
-10 -4 -10 -9z"/>
<path d="M2350 2423 c0 -97 13 -145 50 -186 l28 -32 29 21 c25 19 29 29 35 95
3 41 9 98 13 127 l8 52 -82 0 -81 0 0 -77z"/>
<path d="M1940 2354 c-12 -19 -20 -38 -17 -41 6 -5 47 55 47 70 0 14 -9 6 -30
-29z"/>
<path d="M2510 2324 c1 -36 2 -38 15 -20 19 25 19 31 0 46 -13 11 -15 7 -15
-26z"/>
<path d="M1040 2300 c0 -19 7 -20 160 -20 153 0 160 1 160 20 0 19 -7 20 -160
20 -153 0 -160 -1 -160 -20z"/>
<path d="M2203 2273 c-17 -6 -17 -33 0 -33 14 0 37 20 37 32 0 9 -18 9 -37 1z"/>
<path d="M3429 2261 c-13 -11 -21 -22 -17 -26 8 -8 68 22 68 35 0 16 -26 11
-51 -9z"/>
<path d="M3080 2215 l-25 -26 40 3 c32 2 40 7 40 23 0 29 -28 29 -55 0z"/>
<path d="M2477 2219 c-21 -12 -13 -29 14 -29 20 0 23 8 11 27 -5 8 -13 8 -25
2z"/>
<path d="M1910 2205 c0 -12 15 -15 83 -14 l82 1 -60 9 c-33 5 -70 11 -82 14
-16 4 -23 1 -23 -10z"/>
<path d="M3010 2205 c-10 -12 -10 -15 4 -15 9 0 16 7 16 15 0 8 -2 15 -4 15
-2 0 -9 -7 -16 -15z"/>
</g>
</svg>
