<?xml version="1.0" standalone="no"?>
<!DOCTYPE svg PUBLIC "-//W3C//DTD SVG 20010904//EN"
 "http://www.w3.org/TR/2001/REC-SVG-20010904/DTD/svg10.dtd">
<svg version="1.0" xmlns="http://www.w3.org/2000/svg"
 width="500.000000pt" height="500.000000pt" viewBox="0 0 500.000000 500.000000"
 preserveAspectRatio="xMidYMid meet">

<g transform="translate(0.000000,500.000000) scale(0.100000,-0.100000)"
fill="#000000" stroke="none">
<path d="M3000 2616 l0 -916 276 0 c314 0 381 9 457 63 56 40 81 70 113 141
52 114 55 147 54 731 -1 588 -4 629 -57 726 -33 62 -80 104 -153 138 l-55 26
-317 3 -318 3 0 -915z m505 569 l25 -24 0 -544 0 -544 -24 -22 c-16 -15 -41
-24 -80 -28 l-56 -6 0 597 0 596 55 0 c46 0 60 -4 80 -25z"/>
<path d="M835 3028 c-4 -29 -5 -77 -3 -107 l3 -53 347 -202 c190 -110 349
-203 351 -206 3 -3 -157 -99 -355 -215 l-359 -210 6 -85 c7 -107 14 -150 23
-150 4 1 252 131 552 289 723 383 701 344 304 548 -142 73 -395 203 -561 288
l-302 155 -6 -52z"/>
<path d="M2000 1835 l0 -45 355 0 355 0 0 45 0 45 -355 0 -355 0 0 -45z"/>
</g>
</svg>
